:FULLY-SPECIFIED
:FORCE-ALL-JOINTS-BE-3DOF
:DEGREES
918
root -0.0212551 14.0771 -36.107 373.49 -25.8957 342.521
lfemur -67.1514 32.7897 -1.40734
ltibia 72.2869 0 0
lfoot -8.5216 -11.1639 0
ltoes -9.82584 0 0
rfemur 7.97186 -8.00205 13.3336
rtibia 35.1919 0 0
rfoot -22.7771 -28.4038 0
rtoes -29.121 0 0
lowerback 10.7867 -0.196161 7.48303
upperback -1.80177 1.20899 5.98954
thorax -8.00169 0.373639 1.97801
lowerneck -3.45991 7.65233 2.43674
upperneck 3.97404 10.104 -0.487409
head 1.98455 5.0659 -0.272458
lclavicle 1.02637e-14 1.01532e-14 0
lhumerus 6.07041 -10.5575 77.4165
lradius 16.8798 0 0
lwrist -29.6476 0 0
lhand -26.4201 29.3238 0
lfingers 7.12502 0 0
lthumb 0.138797 59.3097 0
rclavicle 1.02637e-14 1.01532e-14 0
rhumerus -77.2232 22.4203 -97.2912
rradius 110.02 0 0
rwrist -69.1608 0 0
rhand -11.6303 -24.2215 0
rfingers 7.12502 0 0
rthumb 14.4134 -53.7022 0
919
root -0.0166771 14.0714 -36.1036 373.467 -25.899 342.501
lfemur -67.204 32.8361 -1.43804
ltibia 72.388 0 0
lfoot -8.5048 -11.22 0
ltoes -9.53447 0 0
rfemur 7.98612 -8.03777 13.3025
rtibia 35.246 0 0
rfoot -22.8012 -28.3624 0
rtoes -29.2029 0 0
lowerback 10.7668 -0.204651 7.51223
upperback -1.78708 1.19996 6.03182
thorax -7.97579 0.369339 2.00802
lowerneck -3.4643 7.65896 2.46923
upperneck 4.02654 10.1128 -0.516175
head 2.00657 5.07004 -0.284638
lclavicle 1.18768e-14 7.13108e-15 0
lhumerus 5.32687 -12.0637 78.1449
lradius 16.9809 0 0
lwrist -28.34 0 0
lhand -26.12 29.2963 0
lfingers 7.12502 0 0
lthumb 0.428666 59.2826 0
rclavicle 1.18768e-14 7.13108e-15 0
rhumerus -77.2141 22.3962 -97.2571
rradius 110 0 0
rwrist -69.151 0 0
rhand -11.6397 -24.2221 0
rfingers 7.12502 0 0
rthumb 14.4042 -53.7036 0
920
root -0.0134209 14.0662 -36.1015 373.438 -25.9125 342.489
lfemur -67.2367 32.8717 -1.4624
ltibia 72.4708 0 0
lfoot -8.47452 -11.2619 0
ltoes -9.24283 0 0
rfemur 7.98504 -8.07741 13.2681
rtibia 35.3235 0 0
rfoot -22.8253 -28.3202 0
rtoes -29.2792 0 0
lowerback 10.7506 -0.211582 7.53638
upperback -1.77137 1.19212 6.07131
thorax -7.95087 0.365772 2.03754
lowerneck -3.47077 7.6666 2.50143
upperneck 4.08123 10.123 -0.546705
head 2.02981 5.07483 -0.297098
lclavicle 1.34289e-14 4.06398e-15 0
lhumerus 4.58558 -13.5829 78.8551
lradius 17.1182 0 0
lwrist -27.0049 0 0
lhand -25.8306 29.277 0
lfingers 7.12502 0 0
lthumb 0.708132 59.2633 0
rclavicle 1.34289e-14 4.06398e-15 0
rhumerus -77.2016 22.3664 -97.2182
rradius 109.983 0 0
rwrist -69.1339 0 0
rhand -11.6478 -24.2227 0
rfingers 7.12502 0 0
rthumb 14.3965 -53.7048 0
921
root -0.0113455 14.0614 -36.1007 373.404 -25.9354 342.486
lfemur -67.2513 32.8975 -1.4811
ltibia 72.5373 0 0
lfoot -8.43224 -11.2908 0
ltoes -8.95101 0 0
rfemur 7.97014 -8.12063 13.2305
rtibia 35.4222 0 0
rfoot -22.8494 -28.2771 0
rtoes -29.3506 0 0
lowerback 10.7376 -0.217167 7.55584
upperback -1.75476 1.18525 6.1084
thorax -7.92688 0.36283 2.06688
lowerneck -3.47918 7.67519 2.53339
upperneck 4.13808 10.1347 -0.578847
head 2.05425 5.08025 -0.30981
lclavicle 1.49193e-14 9.5574e-16 0
lhumerus 3.85434 -15.1137 79.5426
lradius 17.2945 0 0
lwrist -25.6437 0 0
lhand -25.5522 29.2658 0
lfingers 7.12502 0 0
lthumb 0.977051 59.2518 0
rclavicle 1.49193e-14 9.5574e-16 0
rhumerus -77.1859 22.3315 -97.1748
rradius 109.968 0 0
rwrist -69.1096 0 0
rhand -11.6544 -24.2236 0
rfingers 7.12502 0 0
rthumb 14.3901 -53.7061 0
922
root -0.0103099 14.057 -36.1009 373.364 -25.9668 342.489
lfemur -67.2499 32.9146 -1.49483
ltibia 72.5899 0 0
lfoot -8.3794 -11.3078 0
ltoes -8.65908 0 0
rfemur 7.94294 -8.16705 13.1898
rtibia 35.5398 0 0
rfoot -22.8736 -28.2331 0
rtoes -29.4176 0 0
lowerback 10.7277 -0.22162 7.57093
upperback -1.73735 1.17917 6.14349
thorax -7.90377 0.360404 2.09629
lowerneck -3.48936 7.68469 2.56514
upperneck 4.19707 10.1476 -0.612451
head 2.07985 5.08624 -0.322745
lclavicle 1.63473e-14 -2.18985e-15 0
lhumerus 3.14096 -16.6552 80.2033
lradius 17.5127 0 0
lwrist -24.2576 0 0
lhand -25.2849 29.2626 0
lfingers 7.12502 0 0
lthumb 1.23528 59.2479 0
rclavicle 1.63473e-14 -2.18985e-15 0
rhumerus -77.1675 22.2922 -97.1272
rradius 109.956 0 0
rwrist -69.0784 0 0
rhand -11.6595 -24.2247 0
rfingers 7.12502 0 0
rthumb 14.3852 -53.7077 0
923
root -0.0101728 14.0528 -36.1021 373.321 -26.0059 342.498
lfemur -67.2344 32.9243 -1.50428
ltibia 72.6305 0 0
lfoot -8.31748 -11.314 0
ltoes -8.36712 0 0
rfemur 7.90497 -8.21631 13.1461
rtibia 35.6743 0 0
rfoot -22.8976 -28.1883 0
rtoes -29.4808 0 0
lowerback 10.7205 -0.225153 7.58201
upperback -1.71924 1.17364 6.17696
thorax -7.88149 0.358388 2.12607
lowerneck -3.5012 7.69503 2.59672
upperneck 4.25818 10.1618 -0.647368
head 2.10655 5.09278 -0.335876
lclavicle 1.77121e-14 -5.36898e-15 0
lhumerus 2.45323 -18.2062 80.8327
lradius 17.7755 0 0
lwrist -22.848 0 0
lhand -25.0288 29.2673 0
lfingers 7.12502 0 0
lthumb 1.48266 59.2516 0
rclavicle 1.77121e-14 -5.36898e-15 0
rhumerus -77.1468 22.249 -97.0758
rradius 109.947 0 0
rwrist -69.0404 0 0
rhand -11.663 -24.2263 0
rfingers 7.12502 0 0
rthumb 14.3818 -53.7096 0
924
root -0.0107933 14.0488 -36.1039 373.274 -26.0519 342.513
lfemur -67.2068 32.9275 -1.51014
ltibia 72.6614 0 0
lfoot -8.24792 -11.3106 0
ltoes -8.0752 0 0
rfemur 7.85776 -8.26805 13.0994
rtibia 35.8233 0 0
rfoot -22.9215 -28.1425 0
rtoes -29.5408 0 0
lowerback 10.7157 -0.227979 7.5894
upperback -1.70056 1.16848 6.20921
thorax -7.85998 0.356672 2.1565
lowerneck -3.51453 7.70615 2.62819
upperneck 4.32138 10.1771 -0.683446
head 2.13432 5.09983 -0.349172
lclavicle 1.90129e-14 -8.57786e-15 0
lhumerus 1.79897 -19.7656 81.4266
lradius 18.0858 0 0
lwrist -21.4164 0 0
lhand -24.784 29.2798 0
lfingers 7.12502 0 0
lthumb 1.71907 59.2628 0
rclavicle 1.90129e-14 -8.57786e-15 0
rhumerus -77.1239 22.2025 -97.0209
rradius 109.94 0 0
rwrist -68.9959 0 0
rhand -11.665 -24.2286 0
rfingers 7.12502 0 0
rthumb 14.3799 -53.712 0
925
root -0.0120301 14.0449 -36.1064 373.223 -26.1039 342.532
lfemur -67.1691 32.9254 -1.51309
ltibia 72.6846 0 0
lfoot -8.1722 -11.2986 0
ltoes -7.78341 0 0
rfemur 7.80283 -8.3219 13.05
rtibia 35.9848 0 0
rfoot -22.9452 -28.0957 0
rtoes -29.5983 0 0
lowerback 10.7132 -0.230311 7.59344
upperback -1.68139 1.16347 6.24062
thorax -7.8392 0.355149 2.18785
lowerneck -3.52922 7.71801 2.65958
upperneck 4.38666 10.1934 -0.720536
head 2.16313 5.10735 -0.362607
lclavicle 2.02489e-14 -1.18127e-14 0
lhumerus 1.18597 -21.3322 81.9807
lradius 18.4463 0 0
lwrist -19.964 0 0
lhand -24.5508 29.3 0
lfingers 7.12502 0 0
lthumb 1.94434 59.2815 0
rclavicle 2.02489e-14 -1.18127e-14 0
rhumerus -77.0994 22.1533 -96.9628
rradius 109.937 0 0
rwrist -68.945 0 0
rhand -11.6653 -24.2316 0
rfingers 7.12502 0 0
rthumb 14.3796 -53.715 0
926
root -0.0137423 14.0412 -36.1092 373.17 -26.1613 342.555
lfemur -67.1232 32.9191 -1.51381
ltibia 72.7024 0 0
lfoot -8.09177 -11.2791 0
ltoes -7.49182 0 0
rfemur 7.7417 -8.3775 12.9977
rtibia 36.1565 0 0
rfoot -22.9687 -28.0479 0
rtoes -29.6538 0 0
lowerback 10.7124 -0.232363 7.59447
upperback -1.66186 1.1584 6.27158
thorax -7.81909 0.353711 2.2204
lowerneck -3.54513 7.73054 2.69094
upperneck 4.45398 10.2107 -0.758487
head 2.19293 5.11531 -0.37615
lclavicle 2.14194e-14 -1.50697e-14 0
lhumerus 0.622047 -22.905 82.4906
lradius 18.8598 0 0
lwrist -18.4922 0 0
lhand -24.3293 29.3279 0
lfingers 7.12502 0 0
lthumb 2.15834 59.3076 0
rclavicle 2.14194e-14 -1.50697e-14 0
rhumerus -77.0735 22.102 -96.9018
rradius 109.935 0 0
rwrist -68.8881 0 0
rhand -11.6639 -24.2355 0
rfingers 7.12502 0 0
rthumb 14.3809 -53.7189 0
927
root -0.0157886 14.0374 -36.1123 373.115 -26.2231 342.58
lfemur -67.0711 32.9097 -1.51301
ltibia 72.7168 0 0
lfoot -8.00809 -11.2533 0
ltoes -7.2005 0 0
rfemur 7.67591 -8.43449 12.9428
rtibia 36.3362 0 0
rfoot -22.9918 -27.999 0
rtoes -29.7078 0 0
lowerback 10.7133 -0.234348 7.59284
upperback -1.64206 1.15307 6.30249
thorax -7.7996 0.35225 2.25444
lowerneck -3.56211 7.74369 2.72231
upperneck 4.52332 10.2289 -0.797148
head 2.22368 5.12367 -0.389774
lclavicle 2.25237e-14 -1.8345e-14 0
lhumerus 0.114992 -24.4829 82.952
lradius 19.3291 0 0
lwrist -17.0023 0 0
lhand -24.1196 29.3633 0
lfingers 7.12502 0 0
lthumb 2.36092 59.3411 0
rclavicle 2.25237e-14 -1.8345e-14 0
rhumerus -77.0466 22.0491 -96.8383
rradius 109.937 0 0
rwrist -68.8252 0 0
rhand -11.6608 -24.2406 0
rfingers 7.12502 0 0
rthumb 14.3839 -53.7237 0
928
root -0.0180281 14.0336 -36.1155 373.057 -26.2885 342.608
lfemur -67.0148 32.8984 -1.51135
ltibia 72.73 0 0
lfoot -7.92263 -11.2224 0
ltoes -6.90953 0 0
rfemur 7.60697 -8.49249 12.8854
rtibia 36.5217 0 0
rfoot -23.0145 -27.9491 0
rtoes -29.7611 0 0
lowerback 10.7154 -0.236478 7.58887
upperback -1.6221 1.14727 6.33374
thorax -7.78068 0.350659 2.29025
lowerneck -3.58002 7.7574 2.75374
upperneck 4.59466 10.2478 -0.83637
head 2.25535 5.1324 -0.40345
lclavicle 2.35609e-14 -2.16349e-14 0
lhumerus -0.327387 -26.0646 83.3607
lradius 19.857 0 0
lwrist -15.4958 0 0
lhand -23.9219 29.4061 0
lfingers 7.12502 0 0
lthumb 2.55193 59.3817 0
rclavicle 2.35609e-14 -2.16349e-14 0
rhumerus -77.0191 21.9954 -96.7726
rradius 109.941 0 0
rwrist -68.7567 0 0
rhand -11.656 -24.2468 0
rfingers 7.12502 0 0
rthumb 14.3886 -53.7296 0
929
root -0.0203196 14.0297 -36.1187 372.999 -26.3567 342.636
lfemur -66.9563 32.8861 -1.50954
ltibia 72.7441 0 0
lfoot -7.83684 -11.1873 0
ltoes -6.619 0 0
rfemur 7.53641 -8.55115 12.8255
rtibia 36.7108 0 0
rfoot -23.0368 -27.8981 0
rtoes -29.8142 0 0
lowerback 10.7186 -0.238967 7.5829
upperback -1.60209 1.1408 6.36572
thorax -7.76228 0.348828 2.3281
lowerneck -3.59871 7.77162 2.78525
upperneck 4.66799 10.2675 -0.876002
head 2.28788 5.14146 -0.417149
lclavicle 2.45302e-14 -2.49355e-14 0
lhumerus -0.697287 -27.6492 83.7122
lradius 20.4463 0 0
lwrist -13.9739 0 0
lhand -23.7363 29.4562 0
lfingers 7.12502 0 0
lthumb 2.73123 59.4296 0
rclavicle 2.45302e-14 -2.49355e-14 0
rhumerus -76.9912 21.9412 -96.7049
rradius 109.947 0 0
rwrist -68.6826 0 0
rhand -11.6494 -24.2545 0
rfingers 7.12502 0 0
rthumb 14.395 -53.7368 0
930
root -0.022522 14.0256 -36.1215 372.94 -26.4269 342.665
lfemur -66.8975 32.8741 -1.50825
ltibia 72.7613 0 0
lfoot -7.75218 -11.1492 0
ltoes -6.32897 0 0
rfemur 7.46576 -8.6101 12.7631
rtibia 36.9013 0 0
rfoot -23.0585 -27.8459 0
rtoes -29.8677 0 0
lowerback 10.7224 -0.242028 7.57528
upperback -1.58214 1.13344 6.39881
thorax -7.74434 0.346651 2.36827
lowerneck -3.61804 7.78629 2.81691
upperneck 4.74326 10.2877 -0.915893
head 2.32125 5.15081 -0.430843
lclavicle 2.54311e-14 -2.82431e-14 0
lhumerus -0.986904 -29.2355 84.0024
lradius 21.0998 0 0
lwrist -12.438 0 0
lhand -23.563 29.5135 0
lfingers 7.12502 0 0
lthumb 2.89867 59.4846 0
rclavicle 2.54311e-14 -2.82431e-14 0
rhumerus -76.9634 21.8874 -96.6357
rradius 109.957 0 0
rwrist -68.6033 0 0
rhand -11.6409 -24.2637 0
rfingers 7.12502 0 0
rthumb 14.4031 -53.7454 0
